<svg width="197" height="132" viewBox="0 0 197 132" fill="none" xmlns="http://www.w3.org/2000/svg">
<path d="M73.782 48.449L92.1212 29.3901L103.385 40.6373L127.366 15.6992L159.774 48.449H73.782Z" fill="white"/>
<path d="M68.2428 48.4487L92.6206 24.2243L103.561 35.0798L112.435 26.1577L86.5268 0L37.9758 48.4487H68.2428Z" fill="#FCD345"/>
<path d="M4.83783 104.582V104.319H4.42982C4.16336 104.319 3.91079 104.262 3.67209 104.148C3.49445 104.063 3.37788 103.961 3.32237 103.842C3.2502 103.686 3.21412 103.363 3.21412 102.875V99.9384H8.45996V102.875C8.45996 103.454 8.39056 103.819 8.25179 103.97C8.04084 104.203 7.705 104.319 7.24425 104.319H6.84457V104.582H11.6741V104.319H11.2744C11.0079 104.319 10.7526 104.262 10.5083 104.148C10.3362 104.063 10.2224 103.961 10.1669 103.842C10.0948 103.686 10.0587 103.363 10.0587 102.875V96.6532C10.0587 96.1791 10.0906 95.865 10.1544 95.711C10.2183 95.5569 10.339 95.442 10.5167 95.3661C10.7554 95.2571 11.0079 95.2026 11.2744 95.2026H11.6741V94.9395H6.84457V95.2026H7.24425C7.51071 95.2026 7.76329 95.2594 8.00199 95.3732C8.17963 95.4585 8.2962 95.5605 8.35171 95.679C8.42387 95.8354 8.45996 96.1601 8.45996 96.6532V99.4122H3.21412V96.6532C3.21412 96.1791 3.24743 95.865 3.31404 95.711C3.38065 95.5569 3.5 95.442 3.67209 95.3661C3.91079 95.2571 4.16336 95.2026 4.42982 95.2026H4.83783V94.9395H0V95.2026H0.399684C0.666139 95.2026 0.921491 95.2594 1.16574 95.3732C1.33783 95.4585 1.45163 95.5605 1.50714 95.679C1.5793 95.8354 1.61539 96.1601 1.61539 96.6532V102.875C1.61539 103.454 1.54877 103.819 1.41554 103.97C1.2046 104.203 0.865981 104.319 0.399684 104.319H0V104.582H4.83783ZM20.569 104.582L21.5241 102.164H21.1976C20.8438 102.757 20.4983 103.2 20.1609 103.494C19.8997 103.717 19.6276 103.866 19.3446 103.942C19.0616 104.018 18.6072 104.056 17.9814 104.056H16.104C15.7992 104.056 15.5924 104.028 15.4836 103.974C15.3748 103.919 15.2986 103.846 15.255 103.753C15.2115 103.661 15.1897 103.401 15.1897 102.975V99.7962H17.6222C18.0848 99.7962 18.4276 99.8436 18.6508 99.9384C18.8739 100.033 19.0344 100.164 19.1324 100.329C19.2086 100.462 19.2847 100.763 19.3609 101.233H19.663V97.8762H19.3609C19.3283 98.4261 19.1705 98.8101 18.8875 99.0282C18.6753 99.1941 18.2535 99.2771 17.6222 99.2771H15.1897V95.4657H18.2263C18.7759 95.4657 19.1596 95.5012 19.3773 95.5723C19.6493 95.6719 19.8548 95.8165 19.9935 96.0061C20.1323 96.1957 20.2588 96.5441 20.3731 97.0514H20.6915L20.569 94.9395H12.0389V95.2026H12.4307C12.8878 95.2026 13.2143 95.2974 13.4102 95.487C13.5517 95.6292 13.6225 96.0061 13.6225 96.6176V102.882C13.6225 103.352 13.5912 103.662 13.5286 103.814C13.466 103.965 13.3477 104.079 13.1735 104.155C12.9395 104.264 12.6919 104.319 12.4307 104.319H12.0389V104.582H20.569ZM26.973 104.582V104.319H26.5506C26.1336 104.319 25.8223 104.214 25.6165 104.006C25.4649 103.859 25.3891 103.482 25.3891 102.875V100.066C25.741 100.133 26.0714 100.183 26.38 100.216C26.6887 100.249 26.9757 100.265 27.241 100.265C28.3241 100.265 29.1621 100.019 29.755 99.526C30.348 99.0329 30.6444 98.393 30.6444 97.606C30.6444 97.0277 30.4495 96.5275 30.0596 96.1056C29.6697 95.6837 29.1905 95.3839 28.6219 95.2061C28.0533 95.0283 27.2762 94.9395 26.2907 94.9395H22.2537V95.2026H22.668C23.0849 95.2026 23.399 95.3068 23.6102 95.5154C23.7564 95.6624 23.8295 96.0393 23.8295 96.6461V102.875C23.8295 103.425 23.7754 103.774 23.6671 103.92C23.4667 104.186 23.1337 104.319 22.668 104.319H22.2537V104.582H26.973ZM26.4573 99.7606C26.3058 99.7606 26.123 99.7493 25.9088 99.7268C25.6946 99.7042 25.4491 99.6704 25.1722 99.6253V95.8097C25.5901 95.724 25.9323 95.6812 26.1988 95.6812C26.6376 95.6812 27.0294 95.7657 27.3742 95.9349C27.719 96.104 27.9854 96.3588 28.1735 96.6993C28.3615 97.0399 28.4556 97.4086 28.4556 97.8055C28.4556 98.3828 28.2584 98.8529 27.8639 99.216C27.4695 99.5791 27.0007 99.7606 26.4573 99.7606ZM34.6516 104.582C35.0853 104.582 35.504 104.474 35.9078 104.259C36.3116 104.043 36.6842 103.704 37.0257 103.24C37.3672 102.777 37.8116 101.996 38.3591 100.897L40.4648 96.6149C40.8876 95.7528 41.5055 95.2801 42.3185 95.1967V94.9395H38.8631V95.1967C39.5461 95.2801 39.8876 95.5026 39.8876 95.8641C39.8876 96.1236 39.7033 96.6334 39.3347 97.3935L37.5786 101.008L35.172 97.3935C34.592 96.5268 34.302 95.9753 34.302 95.7389C34.302 95.4052 34.695 95.2245 35.4809 95.1967V94.9395H31.0093V95.1967C31.4212 95.2569 31.7532 95.3751 32.0052 95.5512C32.2573 95.7273 32.5242 96.0263 32.8061 96.448L36.8062 102.461C36.275 103.222 35.7953 103.602 35.3671 103.602C35.2587 103.602 35.0988 103.553 34.8874 103.456C34.573 103.298 34.302 103.219 34.0744 103.219C33.8413 103.219 33.657 103.276 33.5215 103.39C33.386 103.503 33.3183 103.646 33.3183 103.817C33.3183 104.053 33.447 104.24 33.7045 104.377C33.9619 104.513 34.2776 104.582 34.6516 104.582ZM41.503 106.807C41.6179 106.154 41.9666 105.549 42.5491 104.992C43.1316 104.435 44.0436 104.156 45.2852 104.156H48.1238C48.7692 104.156 49.323 104.225 49.7852 104.363C50.2474 104.502 50.6603 104.776 51.024 105.186C51.3878 105.596 51.6517 106.136 51.8157 106.807H52.0947V103.905C51.3454 103.905 50.9023 103.788 50.7656 103.555C50.6289 103.321 50.5605 102.711 50.5605 101.723V96.6183C50.5605 96.0111 50.6562 95.6259 50.8476 95.4628C51.0391 95.2997 51.4794 95.2091 52.1685 95.1909V94.9395H42.988V95.1909C43.5732 95.2091 43.9602 95.2453 44.1489 95.2997C44.3376 95.3541 44.5003 95.4877 44.637 95.7007C44.7738 95.9137 44.8421 96.2467 44.8421 96.6999C44.8421 97.4566 44.7355 98.4252 44.5222 99.6056C44.3089 100.786 43.926 101.782 43.3736 102.593C42.8212 103.404 42.1047 103.841 41.2241 103.905V106.807H41.503ZM43.0481 103.469C43.6729 102.824 44.1707 101.939 44.5413 100.814C44.9119 99.6892 45.1634 97.7309 45.2958 94.9395V95.2991H48.5204V102.226C48.5204 102.834 48.4502 103.193 48.3099 103.303C48.1696 103.414 47.7447 103.469 47.0352 103.469H43.0481ZM57.0063 104.582V104.319H56.5983C56.3319 104.319 56.0793 104.262 55.8406 104.148C55.663 104.063 55.5464 103.961 55.4909 103.842C55.4187 103.686 55.3826 103.363 55.3826 102.875V99.9384H60.6285V102.875C60.6285 103.454 60.5591 103.819 60.4203 103.97C60.2094 104.203 59.8735 104.319 59.4128 104.319H59.0131V104.582H63.8426V104.319H63.4429C63.1765 104.319 62.9211 104.262 62.6768 104.148C62.5048 104.063 62.391 103.961 62.3354 103.842C62.2633 103.686 62.2272 103.363 62.2272 102.875V96.6532C62.2272 96.1791 62.2591 95.865 62.323 95.711C62.3868 95.5569 62.5075 95.442 62.6852 95.3661C62.9239 95.2571 63.1765 95.2026 63.4429 95.2026H63.8426V94.9395H59.0131V95.2026H59.4128C59.6792 95.2026 59.9318 95.2594 60.1705 95.3732C60.3481 95.4585 60.4647 95.5605 60.5202 95.679C60.5924 95.8354 60.6285 96.1601 60.6285 96.6532V99.4122H55.3826V96.6532C55.3826 96.1791 55.4159 95.865 55.4826 95.711C55.5492 95.5569 55.6685 95.442 55.8406 95.3661C56.0793 95.2571 56.3319 95.2026 56.5983 95.2026H57.0063V94.9395H52.1685V95.2026H52.5682C52.8347 95.2026 53.09 95.2594 53.3343 95.3732C53.5063 95.4585 53.6202 95.5605 53.6757 95.679C53.7478 95.8354 53.7839 96.1601 53.7839 96.6532V102.875C53.7839 103.454 53.7173 103.819 53.5841 103.97C53.3731 104.203 53.0345 104.319 52.5682 104.319H52.1685V104.582H57.0063ZM69.065 104.582C70.4948 104.582 71.5019 104.312 72.0863 103.771C72.6707 103.231 72.963 102.603 72.963 101.887C72.963 101.294 72.7712 100.787 72.3877 100.365C72.0041 99.9431 71.5071 99.6575 70.8966 99.5082C70.2861 99.3589 69.3312 99.2842 68.0318 99.2842H67.6092V96.6958C67.6092 96.0606 67.7005 95.6577 67.8831 95.487C68.0658 95.3163 68.4858 95.2215 69.1433 95.2026V94.9395H64.5722V95.2026C65.2297 95.2215 65.6498 95.3163 65.8324 95.487C66.015 95.6577 66.1064 96.0606 66.1064 96.6958V102.825C66.1064 103.461 66.015 103.864 65.8324 104.034C65.6498 104.205 65.2297 104.3 64.5722 104.319V104.582H69.065ZM78.4352 104.582V104.319H78.1899C77.6339 104.319 77.2713 104.221 77.1024 104.027C76.9334 103.833 76.8489 103.449 76.8489 102.875V96.6461C76.8489 96.1815 76.8857 95.8674 76.9593 95.7039C77.0329 95.5403 77.1705 95.4159 77.3722 95.3305C77.5739 95.2452 77.8464 95.2026 78.1899 95.2026H78.4352V94.9395H73.6926V95.2026H73.9461C74.3004 95.2026 74.5771 95.2452 74.776 95.3305C74.975 95.4159 75.1086 95.5415 75.1767 95.7074C75.2448 95.8733 75.2789 96.1862 75.2789 96.6461V102.875C75.2789 103.344 75.2476 103.655 75.1849 103.807C75.1222 103.958 74.99 104.082 74.7883 104.176C74.5866 104.271 74.3304 104.319 74.0197 104.319H73.6926V104.582H78.4352ZM68.5796 103.84C68.32 103.84 67.957 103.809 67.4907 103.745V99.8146C67.7345 99.7786 67.9756 99.7606 68.214 99.7606C69.0618 99.7606 69.7612 99.9238 70.3123 100.25C70.8633 100.577 71.1389 101.078 71.1389 101.753C71.1389 102.406 70.8753 102.917 70.3481 103.286C69.8208 103.655 69.2314 103.84 68.5796 103.84ZM87.3301 104.582L88.2852 102.164H87.9587C87.6049 102.757 87.2594 103.2 86.922 103.494C86.6608 103.717 86.3887 103.866 86.1057 103.942C85.8227 104.018 85.3683 104.056 84.7425 104.056H82.8651C82.5603 104.056 82.3535 104.028 82.2447 103.974C82.1359 103.919 82.0597 103.846 82.0161 103.753C81.9726 103.661 81.9509 103.401 81.9509 102.975V99.7962H84.3834C84.8459 99.7962 85.1888 99.8436 85.4119 99.9384C85.635 100.033 85.7955 100.164 85.8935 100.329C85.9697 100.462 86.0459 100.763 86.122 101.233H86.4241V97.8762H86.122C86.0894 98.4261 85.9316 98.8101 85.6486 99.0282C85.4364 99.1941 85.0146 99.2771 84.3834 99.2771H81.9509V95.4657H84.9874C85.537 95.4657 85.9207 95.5012 86.1384 95.5723C86.4105 95.6719 86.6159 95.8165 86.7547 96.0061C86.8934 96.1957 87.02 96.5441 87.1342 97.0514H87.4526L87.3301 94.9395H78.8V95.2026H79.1918C79.6489 95.2026 79.9754 95.2974 80.1713 95.487C80.3128 95.6292 80.3836 96.0061 80.3836 96.6176V102.882C80.3836 103.352 80.3523 103.662 80.2897 103.814C80.2271 103.965 80.1088 104.079 79.9346 104.155C79.7006 104.264 79.453 104.319 79.1918 104.319H78.8V104.582H87.3301ZM96.8784 104.582V104.319H96.4868C96.0517 104.319 95.7336 104.219 95.5323 104.02C95.3855 103.873 95.3121 103.503 95.3121 102.911V96.4683L99.5869 104.582H99.8561L104.123 96.4683V102.911C104.123 103.451 104.063 103.797 103.943 103.949C103.753 104.195 103.421 104.319 102.948 104.319H102.556V104.582H107.256V104.319H106.872C106.437 104.319 106.119 104.219 105.918 104.02C105.765 103.873 105.689 103.503 105.689 102.911V96.6105C105.689 96.0701 105.749 95.724 105.869 95.5723C106.064 95.3258 106.399 95.2026 106.872 95.2026H107.256V94.9395H104.123L100.174 102.484L96.1605 94.9395H93.0278V95.2026C93.4792 95.2026 93.8069 95.2488 94.0108 95.3412C94.2148 95.4337 94.3548 95.5486 94.431 95.6861C94.5398 95.8757 94.5941 96.1838 94.5941 96.6105V102.911C94.5941 103.451 94.5343 103.797 94.4147 103.949C94.2189 104.195 93.8871 104.319 93.4194 104.319H93.0278V104.582H96.8784ZM111.082 104.582V104.325C110.552 104.292 110.208 104.221 110.048 104.113C109.889 104.004 109.809 103.877 109.809 103.734C109.809 103.553 109.901 103.279 110.085 102.913L110.831 101.426H115.087L115.752 102.781C115.968 103.222 116.076 103.544 116.076 103.748C116.076 103.9 115.999 104.03 115.845 104.137C115.691 104.243 115.395 104.306 114.957 104.325V104.582H119.294V104.325C118.846 104.301 118.496 104.196 118.245 104.008C117.993 103.821 117.714 103.412 117.406 102.781L113.579 94.9395H113.295L109.428 102.698C109.093 103.379 108.788 103.831 108.512 104.053C108.377 104.165 108.08 104.255 107.62 104.325V104.582H111.082ZM114.917 100.873H111.269L113.116 96.7937L114.917 100.873ZM125.758 104.582V104.319H125.381C124.959 104.319 124.647 104.219 124.444 104.02C124.299 103.873 124.227 103.503 124.227 102.911V95.5439H125.758C126.207 95.5439 126.569 95.6091 126.844 95.7394C127.119 95.8698 127.339 96.0724 127.505 96.3474C127.607 96.5181 127.687 96.8025 127.745 97.2007H128.05L127.93 94.9395H119.058L118.93 97.2007H119.234C119.272 96.7646 119.389 96.4185 119.587 96.1625C119.784 95.9065 120.022 95.7335 120.3 95.6434C120.514 95.5771 120.874 95.5439 121.382 95.5439H122.688V102.911C122.688 103.451 122.63 103.797 122.512 103.949C122.32 104.195 121.994 104.319 121.534 104.319H121.15V104.582H125.758ZM137.31 104.582L138.265 102.164H137.938C137.585 102.757 137.239 103.2 136.902 103.494C136.64 103.717 136.368 103.866 136.085 103.942C135.802 104.018 135.348 104.056 134.722 104.056H132.845C132.54 104.056 132.333 104.028 132.224 103.974C132.115 103.919 132.039 103.846 131.996 103.753C131.952 103.661 131.93 103.401 131.93 102.975V99.7962H134.363C134.826 99.7962 135.168 99.8436 135.391 99.9384C135.615 100.033 135.775 100.164 135.873 100.329C135.949 100.462 136.025 100.763 136.102 101.233H136.404V97.8762H136.102C136.069 98.4261 135.911 98.8101 135.628 99.0282C135.416 99.1941 134.994 99.2771 134.363 99.2771H131.93V95.4657H134.967C135.517 95.4657 135.9 95.5012 136.118 95.5723C136.39 95.6719 136.596 95.8165 136.734 96.0061C136.873 96.1957 137 96.5441 137.114 97.0514H137.432L137.31 94.9395H128.78V95.2026H129.171C129.629 95.2026 129.955 95.2974 130.151 95.487C130.292 95.6292 130.363 96.0061 130.363 96.6176V102.882C130.363 103.352 130.332 103.662 130.269 103.814C130.207 103.965 130.088 104.079 129.914 104.155C129.68 104.264 129.433 104.319 129.171 104.319H128.78V104.582H137.31ZM143.349 104.582V104.319H142.927C142.51 104.319 142.198 104.214 141.992 104.006C141.841 103.859 141.765 103.482 141.765 102.875V100.066C142.117 100.133 142.447 100.183 142.756 100.216C143.065 100.249 143.352 100.265 143.617 100.265C144.7 100.265 145.538 100.019 146.131 99.526C146.724 99.0329 147.02 98.393 147.02 97.606C147.02 97.0277 146.825 96.5275 146.436 96.1056C146.046 95.6837 145.566 95.3839 144.998 95.2061C144.429 95.0283 143.652 94.9395 142.667 94.9395H138.63V95.2026H139.044C139.461 95.2026 139.775 95.3068 139.986 95.5154C140.132 95.6624 140.205 96.0393 140.205 96.6461V102.875C140.205 103.425 140.151 103.774 140.043 103.92C139.843 104.186 139.51 104.319 139.044 104.319H138.63V104.582H143.349ZM143.198 99.7606C143.047 99.7606 142.864 99.7493 142.65 99.7268C142.435 99.7042 142.19 99.6704 141.913 99.6253V95.8097C142.331 95.724 142.673 95.6812 142.939 95.6812C143.378 95.6812 143.77 95.7657 144.115 95.9349C144.46 96.104 144.726 96.3588 144.914 96.6993C145.102 97.0399 145.196 97.4086 145.196 97.8055C145.196 98.3828 144.999 98.8529 144.605 99.216C144.21 99.5791 143.741 99.7606 143.198 99.7606ZM152.611 104.582V104.319C152.068 104.309 151.69 104.264 151.477 104.184C151.263 104.103 151.128 103.993 151.069 103.853C151.011 103.713 150.979 103.437 150.974 103.024L156.2 97.2932V102.825C156.2 103.456 156.103 103.858 155.909 104.031C155.716 104.204 155.261 104.3 154.547 104.319V104.582H159.424V104.319C158.726 104.3 158.28 104.205 158.086 104.034C157.892 103.864 157.796 103.461 157.796 102.825V96.6958C157.796 96.0606 157.892 95.6577 158.086 95.487C158.28 95.3163 158.726 95.2215 159.424 95.2026V94.9395H154.547V95.2026C155.211 95.2026 155.653 95.2796 155.872 95.4337C156.091 95.5877 156.2 95.9539 156.2 96.5323L150.974 102.249V96.6958C150.974 96.0606 151.071 95.6577 151.265 95.487C151.459 95.3163 151.907 95.2215 152.611 95.2026V94.9395H147.75V95.2026C148.448 95.2215 148.894 95.3163 149.088 95.487C149.282 95.6577 149.379 96.0606 149.379 96.6958V102.825C149.379 103.461 149.282 103.864 149.088 104.034C148.894 104.205 148.448 104.3 147.75 104.319V104.582H152.611ZM163.251 104.582V104.325C162.721 104.292 162.376 104.221 162.217 104.113C162.058 104.004 161.978 103.877 161.978 103.734C161.978 103.553 162.07 103.279 162.253 102.913L162.999 101.426H167.255L167.92 102.781C168.136 103.222 168.244 103.544 168.244 103.748C168.244 103.9 168.167 104.03 168.013 104.137C167.859 104.243 167.563 104.306 167.126 104.325V104.582H171.463V104.325C171.014 104.301 170.664 104.196 170.413 104.008C170.162 103.821 169.882 103.412 169.574 102.781L165.748 94.9395H165.464L161.597 102.698C161.262 103.379 160.956 103.831 160.681 104.053C160.546 104.165 160.248 104.255 159.789 104.325V104.582H163.251ZM167.085 100.873H163.437L165.285 96.7937L167.085 100.873ZM172.727 104.582C173.68 104.582 174.427 104.18 174.969 103.376C175.511 102.573 175.782 100.824 175.782 98.1301V95.4595H179.23V102.733C179.23 103.361 179.134 103.76 178.943 103.928C178.751 104.097 178.31 104.191 177.621 104.209V104.469H182.407V104.209C181.718 104.191 181.277 104.097 181.086 103.928C180.894 103.76 180.798 103.361 180.798 102.733V96.6754C180.798 96.0475 180.894 95.6493 181.086 95.4806C181.277 95.3119 181.718 95.2182 182.407 95.1995V94.9395H173.45V95.1995C174.14 95.2182 174.58 95.3119 174.772 95.4806C174.963 95.6493 175.059 96.0475 175.059 96.6754V98.6713C175.059 100.559 174.909 101.842 174.608 102.519C174.306 103.196 173.918 103.535 173.442 103.535C173.245 103.535 173.023 103.457 172.777 103.303C172.558 103.162 172.363 103.092 172.194 103.092C171.991 103.092 171.819 103.155 171.676 103.282C171.534 103.408 171.463 103.558 171.463 103.731C171.463 103.956 171.572 104.154 171.791 104.325C172.01 104.496 172.322 104.582 172.727 104.582ZM187.63 104.582C189.06 104.582 190.067 104.312 190.651 103.771C191.236 103.231 191.528 102.603 191.528 101.887C191.528 101.294 191.336 100.787 190.952 100.365C190.569 99.9431 190.072 99.6575 189.461 99.5082C188.851 99.3589 187.896 99.2842 186.597 99.2842H186.174V96.6958C186.174 96.0606 186.265 95.6577 186.448 95.487C186.631 95.3163 187.051 95.2215 187.708 95.2026V94.9395H183.137V95.2026C183.795 95.2215 184.215 95.3163 184.397 95.487C184.58 95.6577 184.671 96.0606 184.671 96.6958V102.825C184.671 103.461 184.58 103.864 184.397 104.034C184.215 104.205 183.795 104.3 183.137 104.319V104.582H187.63ZM197 104.582V104.319H196.755C196.199 104.319 195.836 104.221 195.667 104.027C195.498 103.833 195.414 103.449 195.414 102.875V96.6461C195.414 96.1815 195.45 95.8674 195.524 95.7039C195.598 95.5403 195.735 95.4159 195.937 95.3305C196.139 95.2452 196.411 95.2026 196.755 95.2026H197V94.9395H192.257V95.2026H192.511C192.865 95.2026 193.142 95.2452 193.341 95.3305C193.54 95.4159 193.673 95.5415 193.742 95.7074C193.81 95.8733 193.844 96.1862 193.844 96.6461V102.875C193.844 103.344 193.812 103.655 193.75 103.807C193.687 103.958 193.555 104.082 193.353 104.176C193.151 104.271 192.895 104.319 192.584 104.319H192.257V104.582H197ZM187.509 104.211C187.25 104.211 186.887 104.179 186.42 104.116V100.186C186.664 100.149 186.905 100.131 187.144 100.131C187.991 100.131 188.691 100.295 189.242 100.621C189.793 100.948 190.069 101.449 190.069 102.124C190.069 102.777 189.805 103.288 189.278 103.657C188.75 104.026 188.161 104.211 187.509 104.211Z" fill="white"/>
<path d="M43.7015 59.6023V80.9111H39.2483V63.2648H30.6332V80.9111H26.18V59.6023H43.7015ZM51.6637 80.9111H46.8359L54.192 59.6023H59.9978L67.3436 80.9111H62.5158L57.1782 64.4717H57.0117L51.6637 80.9111ZM51.3619 72.5353H62.7655V76.0521H51.3619V72.5353ZM69.9083 80.9111V59.6023H78.3153C79.9315 59.6023 81.3084 59.911 82.446 60.5283C83.5836 61.1387 84.4506 61.9885 85.0472 63.0775C85.6506 64.1596 85.9524 65.4081 85.9524 66.8232C85.9524 68.2382 85.6472 69.4868 85.0368 70.5689C84.4263 71.6509 83.5419 72.4937 82.3836 73.0972C81.2321 73.7007 79.8379 74.0024 78.2009 74.0024H72.8424V70.392H77.4725C78.3396 70.392 79.0541 70.2428 79.6159 69.9446C80.1847 69.6394 80.6078 69.2197 80.8853 68.6856C81.1697 68.1446 81.3119 67.5238 81.3119 66.8232C81.3119 66.1156 81.1697 65.4983 80.8853 64.9711C80.6078 64.437 80.1847 64.0243 79.6159 63.733C79.0471 63.4347 78.3257 63.2856 77.4517 63.2856H74.4136V80.9111H69.9083ZM90.0908 80.9111H85.2631L92.6192 59.6023H98.425L105.771 80.9111H100.943L95.6053 64.4717H95.4389L90.0908 80.9111ZM89.7891 72.5353H101.193V76.0521H89.7891V72.5353ZM107.181 86.0511V77.3215H108.627C109.119 76.9678 109.57 76.4683 109.979 75.8232C110.389 75.1712 110.739 74.2729 111.03 73.1284C111.322 71.977 111.53 70.4718 111.655 68.6128L112.258 59.6023H126.356V77.3215H128.687V86.0302H124.359V80.9111H111.509V86.0511H107.181ZM113.829 77.3215H122.028V63.3168H116.316L115.983 68.6128C115.893 70.0209 115.744 71.2694 115.536 72.3585C115.334 73.4475 115.088 74.4013 114.797 75.2198C114.512 76.0313 114.19 76.7319 113.829 77.3215ZM131.426 59.6023H135.921V73.0036H136.098L145.306 59.6023H149.249V80.9111H144.744V67.4995H144.588L135.328 80.9111H131.426V59.6023ZM171.773 67.0625H167.216C167.132 66.4729 166.962 65.9492 166.706 65.4914C166.449 65.0266 166.12 64.6312 165.717 64.3052C165.315 63.9792 164.85 63.7295 164.323 63.5561C163.803 63.3827 163.238 63.296 162.627 63.296C161.524 63.296 160.564 63.57 159.745 64.1179C158.927 64.659 158.292 65.4497 157.841 66.4902C157.39 67.5238 157.165 68.7793 157.165 70.2567C157.165 71.7758 157.39 73.0521 157.841 74.0856C158.299 75.1192 158.937 75.8995 159.755 76.4267C160.574 76.9539 161.521 77.2175 162.596 77.2175C163.199 77.2175 163.758 77.1377 164.271 76.9782C164.791 76.8186 165.253 76.5862 165.655 76.281C166.057 75.9689 166.39 75.5909 166.654 75.1469C166.924 74.703 167.112 74.1966 167.216 73.6278L171.773 73.6487C171.655 74.6267 171.36 75.5701 170.889 76.4787C170.424 77.3805 169.796 78.1886 169.005 78.903C168.221 79.6105 167.285 80.1724 166.196 80.5886C165.114 80.9978 163.89 81.2025 162.523 81.2025C160.623 81.2025 158.923 80.7724 157.425 79.9123C155.934 79.0522 154.754 77.8071 153.887 76.177C153.027 74.5469 152.597 72.5735 152.597 70.2567C152.597 67.933 153.034 65.9561 153.908 64.326C154.782 62.696 155.968 61.4543 157.466 60.6012C158.965 59.741 160.65 59.311 162.523 59.311C163.758 59.311 164.902 59.4844 165.957 59.8312C167.018 60.178 167.958 60.6844 168.776 61.3503C169.595 62.0093 170.261 62.8174 170.774 63.7746C171.294 64.7318 171.627 65.8278 171.773 67.0625Z" fill="white"/>
<path d="M85.1531 119.793H82.599C82.5524 119.463 82.4571 119.169 82.3133 118.913C82.1694 118.652 81.9848 118.431 81.7593 118.248C81.5338 118.065 81.2734 117.925 80.9779 117.828C80.6864 117.731 80.3695 117.682 80.0274 117.682C79.4093 117.682 78.8709 117.836 78.4122 118.143C77.9535 118.446 77.5978 118.89 77.3451 119.473C77.0924 120.052 76.9661 120.756 76.9661 121.584C76.9661 122.435 77.0924 123.15 77.3451 123.729C77.6017 124.309 77.9593 124.746 78.418 125.041C78.8767 125.337 79.4074 125.485 80.0099 125.485C80.3482 125.485 80.6611 125.44 80.9488 125.35C81.2403 125.261 81.4988 125.131 81.7243 124.96C81.9498 124.785 82.1364 124.573 82.2841 124.324C82.4357 124.075 82.5407 123.792 82.599 123.473L85.1531 123.485C85.087 124.033 84.9218 124.561 84.6574 125.071C84.397 125.576 84.0451 126.029 83.602 126.429C83.1627 126.826 82.6379 127.141 82.0275 127.374C81.4211 127.603 80.735 127.718 79.9691 127.718C78.904 127.718 77.9515 127.477 77.1118 126.995C76.276 126.513 75.6152 125.815 75.1292 124.901C74.6472 123.988 74.4062 122.882 74.4062 121.584C74.4062 120.281 74.6511 119.173 75.1409 118.26C75.6307 117.346 76.2955 116.65 77.1352 116.172C77.9749 115.69 78.9195 115.449 79.9691 115.449C80.6611 115.449 81.3025 115.546 81.8934 115.741C82.4882 115.935 83.015 116.219 83.4737 116.592C83.9324 116.961 84.3056 117.414 84.5933 117.951C84.8848 118.487 85.0714 119.101 85.1531 119.793ZM86.9637 127.555V115.612H89.4886V120.54H94.6142V115.612H97.1333V127.555H94.6142V122.621H89.4886V127.555H86.9637ZM101.273 127.555H98.5678L102.69 115.612H105.944L110.061 127.555H107.355L104.364 118.341H104.271L101.273 127.555ZM101.104 122.861H107.495V124.832H101.104V122.861ZM111.498 127.555V115.612H119.423V117.694H114.023V120.027H115.965C116.91 120.027 117.724 120.18 118.408 120.487C119.097 120.79 119.627 121.22 120 121.776C120.374 122.332 120.56 122.987 120.56 123.741C120.56 124.491 120.374 125.154 120 125.73C119.627 126.301 119.097 126.748 118.408 127.071C117.724 127.393 116.91 127.555 115.965 127.555H111.498ZM114.023 125.525H115.965C116.416 125.525 116.797 125.444 117.108 125.281C117.419 125.113 117.654 124.894 117.814 124.622C117.977 124.346 118.059 124.044 118.059 123.718C118.059 123.243 117.878 122.843 117.516 122.517C117.159 122.186 116.642 122.021 115.965 122.021H114.023V125.525Z" fill="#FFCB21"/>
</svg>
