<svg width="166" height="111" viewBox="0 0 166 111" fill="none" xmlns="http://www.w3.org/2000/svg">
<path d="M62.1716 40.825L77.6249 24.7653L87.1164 34.2426L107.324 13.2288L134.632 40.825H62.1716Z" fill="#434343"/>
<path d="M57.5042 40.8248L78.0458 20.4124L87.2648 29.5596L94.7418 22.0415L72.9109 0L32 40.8248H57.5042Z" fill="#FCD345"/>
<path d="M4.07655 88.125V87.9033H3.73274C3.50822 87.9033 3.29539 87.8554 3.09425 87.7595C2.94456 87.6876 2.84633 87.6017 2.79956 87.5018C2.73875 87.37 2.70834 87.0984 2.70834 86.6869V84.2123H7.12869V86.6869C7.12869 87.1743 7.07022 87.4819 6.95328 87.6097C6.77553 87.8054 6.49254 87.9033 6.1043 87.9033H5.76751V88.125H9.83704V87.9033H9.50025C9.27572 87.9033 9.06055 87.8554 8.85474 87.7595C8.70973 87.6876 8.61384 87.6017 8.56706 87.5018C8.50625 87.37 8.47585 87.0984 8.47585 86.6869V81.444C8.47585 81.0446 8.50274 80.7799 8.55654 80.6501C8.61033 80.5203 8.71207 80.4234 8.86175 80.3595C9.06289 80.2676 9.27572 80.2217 9.50025 80.2217H9.83704V80H5.76751V80.2217H6.1043C6.32882 80.2217 6.54166 80.2696 6.74279 80.3655C6.89248 80.4374 6.9907 80.5233 7.03748 80.6232C7.09829 80.755 7.12869 81.0286 7.12869 81.444V83.7689H2.70834V81.444C2.70834 81.0446 2.73641 80.7799 2.79254 80.6501C2.84867 80.5203 2.94924 80.4234 3.09425 80.3595C3.29539 80.2676 3.50822 80.2217 3.73274 80.2217H4.07655V80H0V80.2217H0.33679C0.561315 80.2217 0.776485 80.2696 0.9823 80.3655C1.12731 80.4374 1.2232 80.5233 1.26997 80.6232C1.33078 80.755 1.36119 81.0286 1.36119 81.444V86.6869C1.36119 87.1743 1.30506 87.4819 1.19279 87.6097C1.01504 87.8054 0.72971 87.9033 0.33679 87.9033H0V88.125H4.07655ZM17.3323 88.125L18.137 86.0878H17.8619C17.5638 86.5871 17.2727 86.9606 16.9884 87.2082C16.7683 87.396 16.539 87.5218 16.3005 87.5857C16.0621 87.6496 15.6792 87.6816 15.1519 87.6816H13.5698C13.3131 87.6816 13.1388 87.6586 13.0471 87.6127C12.9554 87.5668 12.8912 87.5048 12.8545 87.4269C12.8178 87.3491 12.7995 87.1303 12.7995 86.7708V84.0925H14.8492C15.239 84.0925 15.5279 84.1324 15.7159 84.2123C15.9039 84.2922 16.0392 84.402 16.1217 84.5419C16.1859 84.6537 16.2501 84.9074 16.3143 85.3028H16.5688V82.4747H16.3143C16.2868 82.938 16.1538 83.2616 15.9153 83.4453C15.7365 83.5851 15.3811 83.6551 14.8492 83.6551H12.7995V80.4434H15.3582C15.8213 80.4434 16.1446 80.4734 16.328 80.5333C16.5573 80.6172 16.7304 80.739 16.8474 80.8988C16.9643 81.0586 17.0709 81.3522 17.1672 81.7796H17.4354L17.3323 80H10.1444V80.2217H10.4746C10.8598 80.2217 11.1349 80.3016 11.3 80.4614C11.4192 80.5812 11.4788 80.8988 11.4788 81.4141V86.6929C11.4788 87.0884 11.4525 87.35 11.3997 87.4779C11.347 87.6057 11.2473 87.7016 11.1005 87.7655C10.9034 87.8574 10.6947 87.9033 10.4746 87.9033H10.1444V88.125H17.3323ZM22.7285 88.125V87.9033H22.3726C22.0212 87.9033 21.7589 87.8154 21.5855 87.6397C21.4577 87.5158 21.3938 87.1983 21.3938 86.6869V84.3202C21.6904 84.3761 21.9688 84.418 22.2289 84.446C22.489 84.4739 22.7308 84.4879 22.9544 84.4879C23.867 84.4879 24.5731 84.2802 25.0727 83.8648C25.5724 83.4493 25.8222 82.9101 25.8222 82.247C25.8222 81.7596 25.658 81.3382 25.3294 80.9827C25.0009 80.6271 24.5971 80.3745 24.1179 80.2247C23.6388 80.0749 22.984 80 22.1536 80H18.7519V80.2217H19.1009C19.4523 80.2217 19.7169 80.3096 19.8949 80.4853C20.0181 80.6092 20.0797 80.9267 20.0797 81.4381V86.6869C20.0797 87.1503 20.0341 87.4439 19.9428 87.5678C19.774 87.7915 19.4933 87.9033 19.1009 87.9033H18.7519V88.125H22.7285ZM22.294 84.0625C22.1663 84.0625 22.0123 84.053 21.8318 84.034C21.6513 84.015 21.4444 83.9865 21.2111 83.9485V80.7333C21.5633 80.6611 21.8516 80.625 22.0761 80.625C22.4459 80.625 22.776 80.6963 23.0666 80.8388C23.3571 80.9813 23.5816 81.196 23.7401 81.483C23.8985 81.7699 23.9778 82.0806 23.9778 82.415C23.9778 82.9015 23.8116 83.2977 23.4793 83.6036C23.1469 83.9095 22.7518 84.0625 22.294 84.0625ZM29.1988 88.125C29.5642 88.125 29.917 88.0342 30.2573 87.8526C30.5976 87.671 30.9116 87.3849 31.1993 86.9944C31.487 86.6039 31.8616 85.9458 32.3229 85.0203L34.0972 81.4118C34.4535 80.6854 34.9742 80.287 35.6593 80.2167V80H32.7476V80.2167C33.3231 80.287 33.6108 80.4745 33.6108 80.7791C33.6108 80.9978 33.4555 81.4274 33.145 82.0679L31.6652 85.114L29.6373 82.0679C29.1486 81.3376 28.9043 80.8728 28.9043 80.6737C28.9043 80.3925 29.2354 80.2402 29.8976 80.2167V80H26.1296V80.2167C26.4767 80.2675 26.7565 80.3671 26.9689 80.5155C27.1812 80.6639 27.4062 80.9158 27.6437 81.2712L31.0143 86.3383C30.5667 86.9788 30.1625 87.299 29.8017 87.299C29.7104 87.299 29.5756 87.258 29.3975 87.176C29.1326 87.0432 28.9042 86.9768 28.7124 86.9768C28.516 86.9768 28.3607 87.0247 28.2466 87.1204C28.1324 87.216 28.0753 87.3361 28.0753 87.4806C28.0753 87.6798 28.1838 87.837 28.4007 87.9522C28.6177 88.0674 28.8837 88.125 29.1988 88.125ZM34.9721 90C35.0689 89.4502 35.3627 88.9404 35.8535 88.4708C36.3444 88.0011 37.1129 87.7663 38.1591 87.7663H40.5511C41.0949 87.7663 41.5615 87.8246 41.951 87.941C42.3404 88.0575 42.6884 88.2885 42.9949 88.634C43.3014 88.9796 43.5237 89.4349 43.662 90H43.897V87.5544C43.2656 87.5544 42.8923 87.4561 42.7771 87.2595C42.6619 87.0628 42.6043 86.5483 42.6043 85.7159V81.4147C42.6043 80.903 42.6849 80.5785 42.8462 80.441C43.0075 80.3036 43.3786 80.2272 43.9593 80.2119V80H36.2234V80.2119C36.7165 80.2272 37.0426 80.2577 37.2016 80.3036C37.3606 80.3494 37.4977 80.462 37.6129 80.6415C37.7281 80.8209 37.7858 81.1016 37.7858 81.4834C37.7858 82.121 37.6959 82.9372 37.5161 83.9318C37.3364 84.9265 37.0138 85.7656 36.5483 86.449C36.0828 87.1325 35.4791 87.501 34.737 87.5544V90H34.9721ZM36.2741 87.1875C36.8005 86.6441 37.2199 85.8984 37.5323 84.9503C37.8446 84.0023 38.0565 82.3522 38.168 80V80.303H40.8852V86.1403C40.8852 86.652 40.8261 86.9545 40.7078 87.0477C40.5896 87.1409 40.2316 87.1875 39.6337 87.1875H36.2741ZM48.0358 88.125V87.9033H47.692C47.4675 87.9033 47.2546 87.8554 47.0535 87.7595C46.9038 87.6876 46.8056 87.6017 46.7588 87.5018C46.698 87.37 46.6676 87.0984 46.6676 86.6869V84.2123H51.088V86.6869C51.088 87.1743 51.0295 87.4819 50.9125 87.6097C50.7348 87.8054 50.4518 87.9033 50.0636 87.9033H49.7268V88.125H53.7963V87.9033H53.4595C53.235 87.9033 53.0198 87.8554 52.814 87.7595C52.669 87.6876 52.5731 87.6017 52.5263 87.5018C52.4655 87.37 52.4351 87.0984 52.4351 86.6869V81.444C52.4351 81.0446 52.462 80.7799 52.5158 80.6501C52.5696 80.5203 52.6713 80.4234 52.821 80.3595C53.0222 80.2676 53.235 80.2217 53.4595 80.2217H53.7963V80H49.7268V80.2217H50.0636C50.2881 80.2217 50.5009 80.2696 50.7021 80.3655C50.8517 80.4374 50.95 80.5233 50.9967 80.6232C51.0575 80.755 51.088 81.0286 51.088 81.444V83.7689H46.6676V81.444C46.6676 81.0446 46.6957 80.7799 46.7518 80.6501C46.8079 80.5203 46.9085 80.4234 47.0535 80.3595C47.2546 80.2676 47.4675 80.2217 47.692 80.2217H48.0358V80H43.9593V80.2217H44.2961C44.5206 80.2217 44.7357 80.2696 44.9416 80.3655C45.0866 80.4374 45.1825 80.5233 45.2292 80.6232C45.29 80.755 45.3204 81.0286 45.3204 81.444V86.6869C45.3204 87.1743 45.2643 87.4819 45.1521 87.6097C44.9743 87.8054 44.689 87.9033 44.2961 87.9033H43.9593V88.125H48.0358ZM58.1969 88.125C59.4017 88.125 60.2503 87.8973 60.7428 87.4419C61.2352 86.9865 61.4815 86.4573 61.4815 85.8541C61.4815 85.3547 61.3199 84.9273 60.9967 84.5718C60.6735 84.2163 60.2547 83.9756 59.7403 83.8498C59.2258 83.724 58.4212 83.661 57.3263 83.661H56.9702V81.48C56.9702 80.9447 57.0471 80.6052 57.201 80.4614C57.3549 80.3176 57.7089 80.2377 58.2629 80.2217V80H54.4111V80.2217C54.9651 80.2377 55.3191 80.3176 55.473 80.4614C55.6269 80.6052 55.7038 80.9447 55.7038 81.48V86.645C55.7038 87.1803 55.6269 87.5198 55.473 87.6636C55.3191 87.8074 54.9651 87.8873 54.4111 87.9033V88.125H58.1969ZM66.0926 88.125V87.9033H65.8859C65.4174 87.9033 65.1119 87.8214 64.9695 87.6576C64.8271 87.4939 64.7559 87.1703 64.7559 86.6869V81.4381C64.7559 81.0466 64.7869 80.7819 64.8489 80.6441C64.9109 80.5063 65.0269 80.4015 65.1969 80.3296C65.3668 80.2576 65.5965 80.2217 65.8859 80.2217H66.0926V80H62.0963V80.2217H62.3099C62.6085 80.2217 62.8416 80.2576 63.0092 80.3296C63.1769 80.4015 63.2894 80.5073 63.3469 80.6471C63.4043 80.7869 63.433 81.0506 63.433 81.4381V86.6869C63.433 87.0824 63.4066 87.3441 63.3538 87.4719C63.3009 87.5997 63.1895 87.7036 63.0196 87.7835C62.8496 87.8634 62.6337 87.9033 62.3719 87.9033H62.0963V88.125H66.0926ZM57.7879 87.5C57.5691 87.5 57.2633 87.4734 56.8704 87.4203V84.108C57.0758 84.0777 57.2789 84.0625 57.4798 84.0625C58.1942 84.0625 58.7836 84.2 59.2479 84.4751C59.7123 84.7502 59.9444 85.1723 59.9444 85.7414C59.9444 86.2916 59.7223 86.7222 59.2781 87.0333C58.8338 87.3444 58.3371 87.5 57.7879 87.5ZM73.5878 88.125L74.3926 86.0878H74.1175C73.8194 86.5871 73.5282 86.9606 73.2439 87.2082C73.0238 87.396 72.7945 87.5218 72.5561 87.5857C72.3176 87.6496 71.9347 87.6816 71.4074 87.6816H69.8254C69.5686 87.6816 69.3944 87.6586 69.3027 87.6127C69.2109 87.5668 69.1467 87.5048 69.1101 87.4269C69.0734 87.3491 69.055 87.1303 69.055 86.7708V84.0925H71.1048C71.4945 84.0925 71.7834 84.1324 71.9714 84.2123C72.1594 84.2922 72.2947 84.402 72.3773 84.5419C72.4414 84.6537 72.5056 84.9074 72.5698 85.3028H72.8243V82.4747H72.5698C72.5423 82.938 72.4093 83.2616 72.1709 83.4453C71.9921 83.5851 71.6367 83.6551 71.1048 83.6551H69.055V80.4434H71.6138C72.0769 80.4434 72.4002 80.4734 72.5836 80.5333C72.8129 80.6172 72.986 80.739 73.1029 80.8988C73.2198 81.0586 73.3265 81.3522 73.4228 81.7796H73.691L73.5878 80H66.4V80.2217H66.7302C67.1153 80.2217 67.3905 80.3016 67.5556 80.4614C67.6748 80.5812 67.7344 80.8988 67.7344 81.4141V86.6929C67.7344 87.0884 67.708 87.35 67.6553 87.4779C67.6026 87.6057 67.5028 87.7016 67.3561 87.7655C67.1589 87.8574 66.9503 87.9033 66.7302 87.9033H66.4V88.125H73.5878ZM81.6336 88.125V87.9033H81.3036C80.937 87.9033 80.6689 87.8194 80.4993 87.6516C80.3756 87.5278 80.3137 87.2162 80.3137 86.7169V81.2883L83.9159 88.125H84.1427L87.738 81.2883V86.7169C87.738 87.1723 87.6876 87.4639 87.5868 87.5917C87.4264 87.7994 87.1468 87.9033 86.7481 87.9033H86.4181V88.125H90.3778V87.9033H90.0547C89.688 87.9033 89.42 87.8194 89.2504 87.6516C89.1221 87.5278 89.0579 87.2162 89.0579 86.7169V81.4081C89.0579 80.9527 89.1083 80.6611 89.2091 80.5333C89.3741 80.3256 89.656 80.2217 90.0547 80.2217H90.3778V80H87.738L84.4108 86.3574L81.0286 80H78.3889V80.2217C78.7693 80.2217 79.0454 80.2607 79.2173 80.3385C79.3891 80.4164 79.5071 80.5133 79.5713 80.6291C79.6629 80.7889 79.7088 81.0486 79.7088 81.4081V86.7169C79.7088 87.1723 79.6584 87.4639 79.5575 87.5917C79.3925 87.7994 79.113 87.9033 78.7189 87.9033H78.3889V88.125H81.6336ZM93.6021 88.125V87.9083C93.1558 87.8809 92.8655 87.8214 92.7311 87.7296C92.5968 87.6378 92.5296 87.5314 92.5296 87.4103C92.5296 87.258 92.607 87.0276 92.7619 86.7191L93.3904 85.4655H96.9768L97.5369 86.6078C97.7191 86.9788 97.8102 87.2502 97.8102 87.422C97.8102 87.5509 97.7453 87.6603 97.6155 87.7501C97.4857 87.8399 97.2364 87.8926 96.8675 87.9083V88.125H100.522V87.9083C100.144 87.8887 99.8493 87.7999 99.6376 87.6417C99.4258 87.4836 99.1901 87.1389 98.9305 86.6078L95.7062 80H95.4671L92.2086 86.5375C91.9262 87.1116 91.6689 87.4923 91.4366 87.6798C91.3228 87.7735 91.0723 87.8497 90.6852 87.9083V88.125H93.6021ZM96.8333 85H93.7593L95.3161 81.5625L96.8333 85ZM105.969 88.125V87.9033H105.651C105.295 87.9033 105.032 87.8194 104.861 87.6516C104.739 87.5278 104.679 87.2162 104.679 86.7169V80.5093H105.969C106.347 80.5093 106.652 80.5642 106.884 80.6741C107.116 80.7839 107.301 80.9547 107.441 81.1864C107.526 81.3302 107.594 81.5699 107.643 81.9054H107.9L107.799 80H100.323L100.215 81.9054H100.471C100.503 81.5379 100.602 81.2463 100.769 81.0306C100.935 80.8149 101.136 80.6691 101.37 80.5932C101.55 80.5373 101.854 80.5093 102.281 80.5093H103.382V86.7169C103.382 87.1723 103.333 87.4639 103.234 87.5917C103.071 87.7994 102.797 87.9033 102.41 87.9033H102.085V88.125H105.969ZM115.703 88.125L116.507 86.0878H116.232C115.934 86.5871 115.643 86.9606 115.359 87.2082C115.139 87.396 114.909 87.5218 114.671 87.5857C114.432 87.6496 114.05 87.6816 113.522 87.6816H111.94C111.683 87.6816 111.509 87.6586 111.417 87.6127C111.326 87.5668 111.262 87.5048 111.225 87.4269C111.188 87.3491 111.17 87.1303 111.17 86.7708V84.0925H113.22C113.609 84.0925 113.898 84.1324 114.086 84.2123C114.274 84.2922 114.41 84.402 114.492 84.5419C114.556 84.6537 114.62 84.9074 114.685 85.3028H114.939V82.4747H114.685C114.657 82.938 114.524 83.2616 114.286 83.4453C114.107 83.5851 113.751 83.6551 113.22 83.6551H111.17V80.4434H113.729C114.192 80.4434 114.515 80.4734 114.698 80.5333C114.928 80.6172 115.101 80.739 115.218 80.8988C115.335 81.0586 115.441 81.3522 115.538 81.7796H115.806L115.703 80H108.515V80.2217H108.845C109.23 80.2217 109.505 80.3016 109.67 80.4614C109.79 80.5812 109.849 80.8988 109.849 81.4141V86.6929C109.849 87.0884 109.823 87.35 109.77 87.4779C109.717 87.6057 109.618 87.7016 109.471 87.7655C109.274 87.8574 109.065 87.9033 108.845 87.9033H108.515V88.125H115.703ZM120.791 88.125V87.9033H120.436C120.084 87.9033 119.822 87.8154 119.648 87.6397C119.521 87.5158 119.457 87.1983 119.457 86.6869V84.3202C119.753 84.3761 120.032 84.418 120.292 84.446C120.552 84.4739 120.794 84.4879 121.017 84.4879C121.93 84.4879 122.636 84.2802 123.136 83.8648C123.635 83.4493 123.885 82.9101 123.885 82.247C123.885 81.7596 123.721 81.3382 123.392 80.9827C123.064 80.6271 122.66 80.3745 122.181 80.2247C121.702 80.0749 121.047 80 120.217 80H116.815V80.2217H117.164C117.515 80.2217 117.78 80.3096 117.958 80.4853C118.081 80.6092 118.143 80.9267 118.143 81.4381V86.6869C118.143 87.1503 118.097 87.4439 118.006 87.5678C117.837 87.7915 117.556 87.9033 117.164 87.9033H116.815V88.125H120.791ZM120.664 84.0625C120.537 84.0625 120.383 84.053 120.202 84.034C120.022 84.015 119.815 83.9865 119.581 83.9485V80.7333C119.934 80.6611 120.222 80.625 120.446 80.625C120.816 80.625 121.146 80.6963 121.437 80.8388C121.727 80.9813 121.952 81.196 122.11 81.483C122.269 81.7699 122.348 82.0806 122.348 82.415C122.348 82.9015 122.182 83.2977 121.85 83.6036C121.517 83.9095 121.122 84.0625 120.664 84.0625ZM128.596 88.125V87.9033C128.138 87.8953 127.82 87.8574 127.64 87.7894C127.46 87.7215 127.346 87.6287 127.297 87.5108C127.248 87.393 127.221 87.1603 127.217 86.8128L131.62 81.9833V86.645C131.62 87.1763 131.539 87.5148 131.375 87.6606C131.212 87.8064 130.829 87.8873 130.227 87.9033V88.125H134.337V87.9033C133.749 87.8873 133.373 87.8074 133.21 87.6636C133.046 87.5198 132.965 87.1803 132.965 86.645V81.48C132.965 80.9447 133.046 80.6052 133.21 80.4614C133.373 80.3176 133.749 80.2377 134.337 80.2217V80H130.227V80.2217C130.787 80.2217 131.16 80.2866 131.344 80.4164C131.528 80.5463 131.62 80.8548 131.62 81.3422L127.217 86.1597V81.48C127.217 80.9447 127.298 80.6052 127.462 80.4614C127.625 80.3176 128.003 80.2377 128.596 80.2217V80H124.5V80.2217C125.088 80.2377 125.464 80.3176 125.627 80.4614C125.791 80.6052 125.872 80.9447 125.872 81.48V86.645C125.872 87.1803 125.791 87.5198 125.627 87.6636C125.464 87.8074 125.088 87.8873 124.5 87.9033V88.125H128.596ZM137.561 88.125V87.9083C137.115 87.8809 136.825 87.8214 136.69 87.7296C136.556 87.6378 136.489 87.5314 136.489 87.4103C136.489 87.258 136.566 87.0276 136.721 86.7191L137.35 85.4655H140.936L141.496 86.6078C141.678 86.9788 141.769 87.2502 141.769 87.422C141.769 87.5509 141.705 87.6603 141.575 87.7501C141.445 87.8399 141.196 87.8926 140.827 87.9083V88.125H144.481V87.9083C144.103 87.8887 143.809 87.7999 143.597 87.6417C143.385 87.4836 143.149 87.1389 142.89 86.6078L139.665 80H139.426L136.168 86.5375C135.885 87.1116 135.628 87.4923 135.396 87.6798C135.282 87.7735 135.032 87.8497 134.644 87.9083V88.125H137.561ZM140.793 85H137.719L139.275 81.5625L140.793 85ZM145.547 88.125C146.349 88.125 146.979 87.7865 147.436 87.1094C147.892 86.4323 148.121 84.9587 148.121 82.6886V80.4382H151.026V86.5675C151.026 87.0965 150.946 87.4321 150.784 87.5743C150.623 87.7164 150.251 87.7953 149.67 87.8111V88.0303H153.704V87.8111C153.123 87.7953 152.751 87.7164 152.59 87.5743C152.428 87.4321 152.348 87.0965 152.348 86.5675V81.4627C152.348 80.9337 152.428 80.5981 152.59 80.456C152.751 80.3139 153.123 80.2349 153.704 80.2191V80H146.156V80.2191C146.737 80.2349 147.108 80.3139 147.27 80.456C147.431 80.5981 147.512 80.9337 147.512 81.4627V83.1446C147.512 84.7356 147.385 85.8164 147.131 86.3869C146.878 86.9574 146.55 87.2426 146.149 87.2426C145.983 87.2426 145.796 87.1775 145.588 87.0472C145.404 86.9288 145.24 86.8695 145.097 86.8695C144.927 86.8695 144.781 86.9228 144.661 87.0294C144.541 87.136 144.481 87.2624 144.481 87.4084C144.481 87.5979 144.574 87.7647 144.758 87.9088C144.943 88.053 145.206 88.125 145.547 88.125ZM158.104 88.125C159.309 88.125 160.158 87.8973 160.65 87.4419C161.143 86.9865 161.389 86.4573 161.389 85.8541C161.389 85.3547 161.227 84.9273 160.904 84.5718C160.581 84.2163 160.162 83.9756 159.648 83.8498C159.133 83.724 158.329 83.661 157.234 83.661H156.878V81.48C156.878 80.9447 156.955 80.6052 157.108 80.4614C157.262 80.3176 157.616 80.2377 158.17 80.2217V80H154.319V80.2217C154.873 80.2377 155.227 80.3176 155.38 80.4614C155.534 80.6052 155.611 80.9447 155.611 81.48V86.645C155.611 87.1803 155.534 87.5198 155.38 87.6636C155.227 87.8074 154.873 87.8873 154.319 87.9033V88.125H158.104ZM166 88.125V87.9033H165.793C165.325 87.9033 165.019 87.8214 164.877 87.6576C164.735 87.4939 164.663 87.1703 164.663 86.6869V81.4381C164.663 81.0466 164.694 80.7819 164.756 80.6441C164.818 80.5063 164.934 80.4015 165.104 80.3296C165.274 80.2576 165.504 80.2217 165.793 80.2217H166V80H162.004V80.2217H162.217C162.516 80.2217 162.749 80.2576 162.917 80.3296C163.084 80.4015 163.197 80.5073 163.254 80.6471C163.312 80.7869 163.34 81.0506 163.34 81.4381V86.6869C163.34 87.0824 163.314 87.3441 163.261 87.4719C163.208 87.5997 163.097 87.7036 162.927 87.7835C162.757 87.8634 162.541 87.9033 162.279 87.9033H162.004V88.125H166ZM158.003 87.8125C157.784 87.8125 157.478 87.7859 157.085 87.7328V84.4205C157.291 84.3902 157.494 84.375 157.695 84.375C158.409 84.375 158.998 84.5125 159.463 84.7876C159.927 85.0627 160.159 85.4848 160.159 86.0539C160.159 86.6041 159.937 87.0347 159.493 87.3458C159.049 87.6569 158.552 87.8125 158.003 87.8125Z" fill="#434343"/>
<path d="M36.8247 50.6293V68.585H33.0722V53.7154H25.8128V68.585H22.0603V50.6293H36.8247ZM43.5339 68.585H39.4658L45.6644 50.6293H50.5566L56.7464 68.585H52.6783L48.1807 54.7324H48.0404L43.5339 68.585ZM43.2797 61.5272H52.8888V64.4906H43.2797V61.5272ZM58.9076 68.585V50.6293H65.9917C67.3535 50.6293 68.5137 50.8894 69.4723 51.4096C70.4309 51.924 71.1615 52.64 71.6642 53.5576C72.1727 54.4694 72.4269 55.5215 72.4269 56.7139C72.4269 57.9063 72.1698 58.9583 71.6554 59.8702C71.141 60.782 70.3958 61.4921 69.4197 62.0006C68.4495 62.5091 67.2746 62.7634 65.8952 62.7634H61.38V59.7211H65.2815C66.0121 59.7211 66.6141 59.5954 67.0876 59.3441C67.5669 59.0869 67.9234 58.7333 68.1572 58.2833C68.3968 57.8273 68.5167 57.3042 68.5167 56.7139C68.5167 56.1177 68.3968 55.5975 68.1572 55.1533C67.9234 54.7032 67.5669 54.3554 67.0876 54.11C66.6083 53.8586 66.0004 53.733 65.264 53.733H62.7039V68.585H58.9076ZM75.9142 68.585H71.8461L78.0447 50.6293H82.9369L89.1267 68.585H85.0586L80.5609 54.7324H80.4206L75.9142 68.585ZM75.6599 61.5272H85.269V64.4906H75.6599V61.5272ZM90.3147 72.9161V65.5602H91.5333C91.9483 65.2621 92.3282 64.8413 92.6731 64.2977C93.0179 63.7483 93.3131 62.9914 93.5586 62.0269C93.8041 61.0567 93.9794 59.7883 94.0846 58.2219L94.5931 50.6293H106.473V65.5602H108.437V72.8985H104.79V68.585H93.9619V72.9161H90.3147ZM95.917 65.5602H102.826V53.7593H98.0124L97.7319 58.2219C97.6559 59.4084 97.5302 60.4605 97.3549 61.3781C97.1854 62.2958 96.9779 63.0995 96.7324 63.7892C96.4928 64.473 96.221 65.0634 95.917 65.5602ZM110.745 50.6293H114.532V61.9217H114.681L122.441 50.6293H125.763V68.585H121.967V57.2838H121.836L114.033 68.585H110.745V50.6293ZM144.743 56.9155H140.903C140.832 56.4187 140.689 55.9774 140.473 55.5917C140.257 55.2 139.979 54.8669 139.64 54.5922C139.301 54.3175 138.909 54.107 138.465 53.9609C138.027 53.8148 137.551 53.7417 137.036 53.7417C136.107 53.7417 135.297 53.9726 134.608 54.4344C133.918 54.8903 133.383 55.5566 133.003 56.4333C132.623 57.3042 132.433 58.3622 132.433 59.6071C132.433 60.8872 132.623 61.9626 133.003 62.8335C133.389 63.7044 133.927 64.362 134.616 64.8062C135.306 65.2504 136.104 65.4725 137.01 65.4725C137.518 65.4725 137.989 65.4053 138.421 65.2709C138.86 65.1364 139.249 64.9406 139.588 64.6835C139.927 64.4204 140.207 64.1019 140.429 63.7278C140.657 63.3537 140.815 62.9271 140.903 62.4478L144.743 62.4653C144.643 63.2894 144.395 64.0844 143.998 64.85C143.606 65.6099 143.077 66.2908 142.411 66.8929C141.75 67.489 140.961 67.9625 140.043 68.3132C139.132 68.658 138.1 68.8304 136.949 68.8304C135.347 68.8304 133.915 68.4681 132.652 67.7433C131.396 67.0185 130.402 65.9693 129.672 64.5958C128.947 63.2222 128.584 61.5593 128.584 59.6071C128.584 57.6491 128.953 55.9833 129.689 54.6097C130.426 53.2361 131.425 52.1899 132.688 51.471C133.95 50.7462 135.37 50.3838 136.949 50.3838C137.989 50.3838 138.953 50.5299 139.842 50.8222C140.736 51.1144 141.528 51.5411 142.218 52.1022C142.907 52.6575 143.469 53.3384 143.901 54.145C144.339 54.9516 144.62 55.8751 144.743 56.9155Z" fill="#434343"/>
<path d="M71.7535 101.46H69.6013C69.562 101.182 69.4818 100.934 69.3606 100.718C69.2394 100.499 69.0838 100.312 68.8938 100.158C68.7038 100.004 68.4843 99.886 68.2354 99.8041C67.9897 99.7222 67.7227 99.6813 67.4344 99.6813C66.9136 99.6813 66.4599 99.8107 66.0734 100.069C65.6868 100.325 65.3871 100.698 65.1742 101.19C64.9613 101.678 64.8548 102.271 64.8548 102.968C64.8548 103.686 64.9613 104.289 65.1742 104.777C65.3904 105.265 65.6918 105.633 66.0783 105.882C66.4648 106.131 66.912 106.256 67.4197 106.256C67.7047 106.256 67.9684 106.218 68.2108 106.143C68.4565 106.067 68.6743 105.958 68.8643 105.813C69.0543 105.666 69.2115 105.488 69.336 105.278C69.4638 105.068 69.5522 104.829 69.6013 104.56L71.7535 104.57C71.6978 105.032 71.5586 105.478 71.3358 105.907C71.1164 106.333 70.8199 106.714 70.4465 107.052C70.0763 107.386 69.6341 107.651 69.1198 107.848C68.6088 108.041 68.0306 108.138 67.3853 108.138C66.4878 108.138 65.6852 107.934 64.9776 107.528C64.2734 107.122 63.7165 106.534 63.307 105.764C62.9008 104.995 62.6977 104.063 62.6977 102.968C62.6977 101.871 62.9041 100.938 63.3168 100.168C63.7296 99.3979 64.2897 98.8116 64.9973 98.4086C65.7049 98.0025 66.5009 97.7994 67.3853 97.7994C67.9684 97.7994 68.5089 97.8812 69.0068 98.045C69.508 98.2088 69.9519 98.448 70.3384 98.7624C70.7249 99.0736 71.0394 99.4552 71.2818 99.9073C71.5275 100.359 71.6847 100.877 71.7535 101.46ZM73.2792 108V97.9369H75.4068V102.089H79.7258V97.9369H81.8485V108H79.7258V103.843H75.4068V108H73.2792ZM85.3372 108H83.0573L86.5312 97.9369H89.273L92.742 108H90.4621L87.9414 100.237H87.8628L85.3372 108ZM85.1947 104.045H90.58V105.705H85.1947V104.045ZM93.9532 108V97.9369H100.631V99.6911H96.0808V101.657H97.717C98.513 101.657 99.1993 101.786 99.7758 102.045C100.356 102.3 100.803 102.662 101.117 103.131C101.432 103.599 101.589 104.151 101.589 104.787C101.589 105.419 101.432 105.977 101.117 106.462C100.803 106.944 100.356 107.32 99.7758 107.592C99.1993 107.864 98.513 108 97.717 108H93.9532ZM96.0808 106.29H97.717C98.097 106.29 98.418 106.221 98.6801 106.084C98.9421 105.943 99.1403 105.758 99.2746 105.528C99.4122 105.296 99.481 105.042 99.481 104.767C99.481 104.367 99.3287 104.03 99.024 103.755C98.7226 103.476 98.287 103.337 97.717 103.337H96.0808V106.29Z" fill="#FCD345"/>
</svg>
