<svg width="60" height="60" viewBox="0 0 60 60" fill="none" xmlns="http://www.w3.org/2000/svg">
<path fill-rule="evenodd" clip-rule="evenodd" d="M24.8599 8.125H35.1399C39.7349 8.125 43.3749 8.125 46.2224 8.5075C49.1524 8.9025 51.5249 9.7325 53.3974 11.6025C55.2674 13.475 56.0974 15.8475 56.4924 18.7775C56.7174 20.46 56.8099 22.4175 56.8474 24.685C56.8801 24.875 56.8835 25.0689 56.8574 25.26C56.8749 26.675 56.8749 28.205 56.8749 29.86V30.14C56.8749 34.735 56.8749 38.375 56.4924 41.2225C56.0974 44.1525 55.2674 46.525 53.3974 48.3975C51.5249 50.2675 49.1524 51.0975 46.2224 51.4925C43.3724 51.875 39.7349 51.875 35.1399 51.875H24.8599C20.2649 51.875 16.6249 51.875 13.7774 51.4925C10.8474 51.0975 8.4749 50.2675 6.6024 48.3975C4.7324 46.525 3.9024 44.1525 3.5074 41.2225C3.1249 38.3725 3.1249 34.735 3.1249 30.14V29.86C3.1249 28.205 3.1249 26.675 3.1424 25.26C3.1156 25.0691 3.11813 24.8752 3.1499 24.685C3.1899 22.4175 3.2824 20.46 3.5074 18.7775C3.9024 15.8475 4.7324 13.475 6.6024 11.6025C8.4749 9.7325 10.8474 8.9025 13.7774 8.5075C16.6274 8.125 20.2649 8.125 24.8599 8.125ZM6.8799 26.875C6.8749 27.845 6.8749 28.885 6.8749 30C6.8749 34.7675 6.8799 38.155 7.2249 40.725C7.5624 43.2375 8.1974 44.6875 9.2549 45.745C10.3124 46.8025 11.7624 47.4375 14.2774 47.775C16.8474 48.12 20.2324 48.125 24.9999 48.125H34.9999C39.7674 48.125 43.1549 48.12 45.7249 47.775C48.2374 47.4375 49.6874 46.8025 50.7449 45.745C51.8024 44.6875 52.4374 43.2375 52.7749 40.7225C53.1199 38.1525 53.1249 34.7675 53.1249 30C53.1249 28.885 53.1249 27.845 53.1199 26.875H6.8799ZM53.0599 23.125H6.9399C6.9899 21.6575 7.0749 20.39 7.2249 19.275C7.5624 16.7625 8.1974 15.3125 9.2549 14.255C10.3124 13.1975 11.7624 12.5625 14.2774 12.225C16.8474 11.88 20.2324 11.875 24.9999 11.875H34.9999C39.7674 11.875 43.1549 11.88 45.7249 12.225C48.2374 12.5625 49.6874 13.1975 50.7449 14.255C51.8024 15.3125 52.4374 16.7625 52.7749 19.2775C52.9249 20.39 53.0099 21.6575 53.0599 23.125ZM13.1249 40C13.1249 39.5027 13.3224 39.0258 13.6741 38.6742C14.0257 38.3225 14.5026 38.125 14.9999 38.125H24.9999C25.4972 38.125 25.9741 38.3225 26.3257 38.6742C26.6774 39.0258 26.8749 39.5027 26.8749 40C26.8749 40.4973 26.6774 40.9742 26.3257 41.3258C25.9741 41.6775 25.4972 41.875 24.9999 41.875H14.9999C14.5026 41.875 14.0257 41.6775 13.6741 41.3258C13.3224 40.9742 13.1249 40.4973 13.1249 40ZM29.3749 40C29.3749 39.5027 29.5724 39.0258 29.9241 38.6742C30.2757 38.3225 30.7526 38.125 31.2499 38.125H34.9999C35.4972 38.125 35.9741 38.3225 36.3257 38.6742C36.6774 39.0258 36.8749 39.5027 36.8749 40C36.8749 40.4973 36.6774 40.9742 36.3257 41.3258C35.9741 41.6775 35.4972 41.875 34.9999 41.875H31.2499C30.7526 41.875 30.2757 41.6775 29.9241 41.3258C29.5724 40.9742 29.3749 40.4973 29.3749 40Z" fill="black"/>
</svg>
