<svg width="60" height="60" viewBox="0 0 60 60" fill="none" xmlns="http://www.w3.org/2000/svg">
<path d="M7.5 25V20C7.5 18.6739 8.02678 17.4021 8.96447 16.4645C9.90215 15.5268 11.1739 15 12.5 15H17.5M7.5 25C10.8325 25 17.5 23 17.5 15M7.5 25V35M17.5 15H42.5M7.5 35V40C7.5 41.3261 8.02678 42.5979 8.96447 43.5355C9.90215 44.4732 11.1739 45 12.5 45H17.5M7.5 35C10.8325 35 17.5 37 17.5 45M52.5 25V20C52.5 18.6739 51.9732 17.4021 51.0355 16.4645C50.0979 15.5268 48.8261 15 47.5 15H42.5M52.5 25C49.1675 25 42.5 23 42.5 15M52.5 25V35M52.5 35V40C52.5 41.3261 51.9732 42.5979 51.0355 43.5355C50.0979 44.4732 48.8261 45 47.5 45H42.5M52.5 35C49.1675 35 42.5 37 42.5 45M42.5 45H17.5" stroke="black" stroke-width="3" stroke-linecap="round" stroke-linejoin="round"/>
<path d="M30 35C32.7614 35 35 32.7614 35 30C35 27.2386 32.7614 25 30 25C27.2386 25 25 27.2386 25 30C25 32.7614 27.2386 35 30 35Z" stroke="black" stroke-width="3" stroke-linecap="round" stroke-linejoin="round"/>
</svg>
